{
  "accessors": [
    {
      "bufferView": 2,
      "componentType": 5126,
      "count": 318,
      "max": [
        -178.22955322265625,
        75.04279327392578,
        -36.052894592285156
      ],
      "min": [
        -282.5909423828125,
        21.17747688293457,
        -118.865234375
      ],
      "type": "VEC3"
    },
    {
      "bufferView": 2,
      "byteOffset": 3816,
      "componentType": 5126,
      "count": 318,
      "max": [
        1.0,
        0.9995312690734863,
        1.0
      ],
      "min": [
        -1.0,
        -1.0,
        -0.9995282888412476
      ],
      "type": "VEC3"
    },
    {
      "bufferView": 3,
      "componentType": 5126,
      "count": 318,
      "max": [
        0.9984885454177856,
        0.9994603991508484,
        1.0,
        1.0
      ],
      "min": [
        -0.9999926686286926,
        -1.0,
        -1.0,
        -1.0
      ],
      "type": "VEC4"
    },
    {
      "bufferView": 1,
      "componentType": 5126,
      "count": 318,
      "max": [
        0.9777718782424927,
        0.9917309284210205
      ],
      "min": [
        0.07349453866481781,
        0.0029296875
      ],
      "type": "VEC2"
    },
    {
      "bufferView": 0,
      "componentType": 5125,
      "count": 1080,
      "type": "SCALAR"
    },
    {
      "bufferView": 2,
      "byteOffset": 7632,
      "componentType": 5126,
      "count": 133,
      "max": [
        -196.42079162597656,
        53.15323257446289,
        -51.353736877441406
      ],
      "min": [
        -263.3599548339844,
        31.795639038085938,
        -123.41571807861328
      ],
      "type": "VEC3"
    },
    {
      "bufferView": 2,
      "byteOffset": 9228,
      "componentType": 5126,
      "count": 133,
      "max": [
        0.9843680262565613,
        0.9998847246170044,
        0.4016273319721222
      ],
      "min": [
        -0.9985478520393372,
        -0.9961065649986267,
        -0.9893050789833069
      ],
      "type": "VEC3"
    },
    {
      "bufferView": 3,
      "byteOffset": 5088,
      "componentType": 5126,
      "count": 133,
      "max": [
        0.6448083519935608,
        0.9966627359390259,
        0.9999042749404907,
        1.0
      ],
      "min": [
        -0.9566001892089844,
        -0.9969083666801453,
        -0.7851143479347229,
        1.0
      ],
      "type": "VEC4"
    },
    {
      "bufferView": 1,
      "byteOffset": 2544,
      "componentType": 5126,
      "count": 133,
      "max": [
        0.9898155927658081,
        0.616486132144928
      ],
      "min": [
        0.3616754710674286,
        0.0029296875
      ],
      "type": "VEC2"
    },
    {
      "bufferView": 0,
      "byteOffset": 4320,
      "componentType": 5125,
      "count": 552,
      "type": "SCALAR"
    },
    {
      "bufferView": 2,
      "byteOffset": 10824,
      "componentType": 5126,
      "count": 824,
      "max": [
        -177.24708557128906,
        134.2939910888672,
        -12.024118423461914
      ],
      "min": [
        -283.6634521484375,
        32.107383728027344,
        -58.73457717895508
      ],
      "type": "VEC3"
    },
    {
      "bufferView": 2,
      "byteOffset": 20712,
      "componentType": 5126,
      "count": 824,
      "max": [
        0.9979062676429749,
        0.9998871684074402,
        0.9963037967681885
      ],
      "min": [
        -0.9981082081794739,
        -0.9997381567955017,
        -0.9998943209648132
      ],
      "type": "VEC3"
    },
    {
      "bufferView": 3,
      "byteOffset": 7216,
      "componentType": 5126,
      "count": 824,
      "max": [
        0.4159570336341858,
        0.28482499718666077,
        0.9991543889045715,
        1.0
      ],
      "min": [
        -0.9999986290931702,
        -0.9999485611915588,
        -0.998189389705658,
        1.0
      ],
      "type": "VEC4"
    },
    {
      "bufferView": 1,
      "byteOffset": 3608,
      "componentType": 5126,
      "count": 824,
      "max": [
        0.5925834774971008,
        0.8412018418312073
      ],
      "min": [
        0.008448359556496143,
        0.0033661385532468557
      ],
      "type": "VEC2"
    },
    {
      "bufferView": 0,
      "byteOffset": 6528,
      "componentType": 5125,
      "count": 4584,
      "type": "SCALAR"
    },
    {
      "bufferView": 2,
      "byteOffset": 30600,
      "componentType": 5126,
      "count": 261,
      "max": [
        -190.07638549804688,
        23.537227630615234,
        -36.58662414550781
      ],
      "min": [
        -204.0967254638672,
        -0.21926243603229523,
        -50.60699462890625
      ],
      "type": "VEC3"
    },
    {
      "bufferView": 2,
      "byteOffset": 33732,
      "componentType": 5126,
      "count": 261,
      "max": [
        0.999365508556366,
        0.8865280151367188,
        0.9993655681610107
      ],
      "min": [
        -0.9984498023986816,
        -0.863655149936676,
        -0.9984496831893921
      ],
      "type": "VEC3"
    },
    {
      "bufferView": 3,
      "byteOffset": 20400,
      "componentType": 5126,
      "count": 261,
      "max": [
        0.8610533475875854,
        -0.37909021973609924,
        0.8627235889434814,
        1.0
      ],
      "min": [
        -0.7743460536003113,
        -0.9997609853744507,
        -0.770159900188446,
        1.0
      ],
      "type": "VEC4"
    },
    {
      "bufferView": 1,
      "byteOffset": 10200,
      "componentType": 5126,
      "count": 261,
      "max": [
        1.1509419679641724,
        0.8383851051330566
      ],
      "min": [
        1.0029147863388062,
        0.6327134370803833
      ],
      "type": "VEC2"
    },
    {
      "bufferView": 0,
      "byteOffset": 24864,
      "componentType": 5125,
      "count": 1344,
      "type": "SCALAR"
    },
    {
      "bufferView": 2,
      "byteOffset": 36864,
      "componentType": 5126,
      "count": 261,
      "max": [
        -256.17327880859375,
        23.537227630615234,
        -36.03662872314453
      ],
      "min": [
        -270.193603515625,
        -0.21926243603229523,
        -50.05696487426758
      ],
      "type": "VEC3"
    },
    {
      "bufferView": 2,
      "byteOffset": 39996,
      "componentType": 5126,
      "count": 261,
      "max": [
        0.9984496235847473,
        0.8865296244621277,
        0.9993652105331421
      ],
      "min": [
        -0.999365508556366,
        -0.8636674880981445,
        -0.9984497427940369
      ],
      "type": "VEC3"
    },
    {
      "bufferView": 3,
      "byteOffset": 24576,
      "componentType": 5126,
      "count": 261,
      "max": [
        0.7701631188392639,
        -0.3790965974330902,
        0.8610533475875854,
        1.0
      ],
      "min": [
        -0.8627423048019409,
        -0.9997604489326477,
        -0.7743071913719177,
        1.0
      ],
      "type": "VEC4"
    },
    {
      "bufferView": 1,
      "byteOffset": 12288,
      "componentType": 5126,
      "count": 261,
      "max": [
        1.1509417295455933,
        0.838385283946991
      ],
      "min": [
        1.0029149055480957,
        0.6327136158943176
      ],
      "type": "VEC2"
    },
    {
      "bufferView": 0,
      "byteOffset": 30240,
      "componentType": 5125,
      "count": 1344,
      "type": "SCALAR"
    },
    {
      "bufferView": 2,
      "byteOffset": 43128,
      "componentType": 5126,
      "count": 261,
      "max": [
        -256.7232971191406,
        23.537227630615234,
        -102.13349914550781
      ],
      "min": [
        -270.7436218261719,
        -0.21926243603229523,
        -116.15386962890625
      ],
      "type": "VEC3"
    },
    {
      "bufferView": 2,
      "byteOffset": 46260,
      "componentType": 5126,
      "count": 261,
      "max": [
        0.9984500408172607,
        0.8865286111831665,
        0.9984495043754578
      ],
      "min": [
        -0.9993653893470764,
        -0.8636572957038879,
        -0.9993657469749451
      ],
      "type": "VEC3"
    },
    {
      "bufferView": 3,
      "byteOffset": 28752,
      "componentType": 5126,
      "count": 261,
      "max": [
        0.7743418216705322,
        -0.3790982961654663,
        0.7701790928840637,
        1.0
      ],
      "min": [
        -0.8610539436340332,
        -0.9997606873512268,
        -0.8627251386642456,
        1.0
      ],
      "type": "VEC4"
    },
    {
      "bufferView": 1,
      "byteOffset": 14376,
      "componentType": 5126,
      "count": 261,
      "max": [
        1.150942087173462,
        0.838385283946991
      ],
      "min": [
        1.0029149055480957,
        0.6327133774757385
      ],
      "type": "VEC2"
    },
    {
      "bufferView": 0,
      "byteOffset": 35616,
      "componentType": 5125,
      "count": 1344,
      "type": "SCALAR"
    },
    {
      "bufferView": 2,
      "byteOffset": 49392,
      "componentType": 5126,
      "count": 261,
      "max": [
        -190.62637329101563,
        23.537227630615234,
        -102.68353271484375
      ],
      "min": [
        -204.64675903320313,
        -0.21926243603229523,
        -116.70386505126953
      ],
      "type": "VEC3"
    },
    {
      "bufferView": 2,
      "byteOffset": 52524,
      "componentType": 5126,
      "count": 261,
      "max": [
        0.9993653297424316,
        0.8865275979042053,
        0.9984499216079712
      ],
      "min": [
        -0.9984493851661682,
        -0.8636566400527954,
        -0.9993652701377869
      ],
      "type": "VEC3"
    },
    {
      "bufferView": 3,
      "byteOffset": 32928,
      "componentType": 5126,
      "count": 261,
      "max": [
        0.8627212643623352,
        -0.379101425409317,
        0.7743289470672607,
        1.0
      ],
      "min": [
        -0.7701780796051025,
        -0.9997608661651611,
        -0.8610541224479675,
        1.0
      ],
      "type": "VEC4"
    },
    {
      "bufferView": 1,
      "byteOffset": 16464,
      "componentType": 5126,
      "count": 261,
      "max": [
        0.1509544849395752,
        0.8383786082267761
      ],
      "min": [
        0.0029296875,
        0.6327090263366699
      ],
      "type": "VEC2"
    },
    {
      "bufferView": 0,
      "byteOffset": 40992,
      "componentType": 5125,
      "count": 1344,
      "type": "SCALAR"
    }
  ],
  "asset": {
    "extras": {
      "author": "Brendan (https://sketchfab.com/Brendan52)",
      "license": "CC-BY-4.0 (http://creativecommons.org/licenses/by/4.0/)",
      "source": "https://sketchfab.com/3d-models/big-leather-chair-7c8b8b8c7e4c494fa908eac4ae725092",
      "title": "Big Leather Chair"
    },
    "generator": "Sketchfab-12.78.0",
    "version": "2.0"
  },
  "bufferViews": [
    {
      "buffer": 0,
      "byteLength": 46368,
      "name": "floatBufferViews",
      "target": 34963
    },
    {
      "buffer": 0,
      "byteLength": 18552,
      "byteOffset": 46368,
      "byteStride": 8,
      "name": "floatBufferViews",
      "target": 34962
    },
    {
      "buffer": 0,
      "byteLength": 55656,
      "byteOffset": 64920,
      "byteStride": 12,
      "name": "floatBufferViews",
      "target": 34962
    },
    {
      "buffer": 0,
      "byteLength": 37104,
      "byteOffset": 120576,
      "byteStride": 16,
      "name": "floatBufferViews",
      "target": 34962
    }
  ],
  "buffers": [
    {
      "byteLength": 157680,
      "uri": "scene.bin"
    }
  ],
  "extensionsUsed": [
    "KHR_texture_transform"
  ],
  "images": [
    {
      "uri": "textures/M_PROPS2_baseColor.png"
    },
    {
      "uri": "textures/M_PROPS2_metallicRoughness.png"
    },
    {
      "uri": "textures/M_PROPS2_normal.png"
    }
  ],
  "materials": [
    {
      "doubleSided": true,
      "name": "M_PROPS2",
      "normalTexture": {
        "index": 2
      },
      "occlusionTexture": {
        "index": 1
      },
      "pbrMetallicRoughness": {
        "baseColorTexture": {
          "extensions": {
            "KHR_texture_transform": {
              "rotation": 6.2831853072,
              "scale": [
                0.9999995204,
                0.9996604254
              ]
            }
          },
          "index": 0
        },
        "metallicRoughnessTexture": {
          "index": 1
        },
        "roughnessFactor": 0.8286135989
      }
    }
  ],
  "meshes": [
    {
      "name": "Armrests_low_M_PROPS2_0",
      "primitives": [
        {
          "attributes": {
            "NORMAL": 1,
            "POSITION": 0,
            "TANGENT": 2,
            "TEXCOORD_0": 3
          },
          "indices": 4,
          "material": 0,
          "mode": 4
        }
      ]
    },
    {
      "name": "Cushion_low_M_PROPS2_0",
      "primitives": [
        {
          "attributes": {
            "NORMAL": 6,
            "POSITION": 5,
            "TANGENT": 7,
            "TEXCOORD_0": 8
          },
          "indices": 9,
          "material": 0,
          "mode": 4
        }
      ]
    },
    {
      "name": "Back_low_M_PROPS2_0",
      "primitives": [
        {
          "attributes": {
            "NORMAL": 11,
            "POSITION": 10,
            "TANGENT": 12,
            "TEXCOORD_0": 13
          },
          "indices": 14,
          "material": 0,
          "mode": 4
        }
      ]
    },
    {
      "name": "Leg1_low_M_PROPS2_0",
      "primitives": [
        {
          "attributes": {
            "NORMAL": 16,
            "POSITION": 15,
            "TANGENT": 17,
            "TEXCOORD_0": 18
          },
          "indices": 19,
          "material": 0,
          "mode": 4
        }
      ]
    },
    {
      "name": "Leg2_low_M_PROPS2_0",
      "primitives": [
        {
          "attributes": {
            "NORMAL": 21,
            "POSITION": 20,
            "TANGENT": 22,
            "TEXCOORD_0": 23
          },
          "indices": 24,
          "material": 0,
          "mode": 4
        }
      ]
    },
    {
      "name": "Leg3_low_M_PROPS2_0",
      "primitives": [
        {
          "attributes": {
            "NORMAL": 26,
            "POSITION": 25,
            "TANGENT": 27,
            "TEXCOORD_0": 28
          },
          "indices": 29,
          "material": 0,
          "mode": 4
        }
      ]
    },
    {
      "name": "Leg4_low_M_PROPS2_0",
      "primitives": [
        {
          "attributes": {
            "NORMAL": 31,
            "POSITION": 30,
            "TANGENT": 32,
            "TEXCOORD_0": 33
          },
          "indices": 34,
          "material": 0,
          "mode": 4
        }
      ]
    }
  ],
  "nodes": [
    {
      "children": [
        1
      ],
      "matrix": [
        1.0,
        0.0,
        0.0,
        0.0,
        0.0,
        2.220446049250313e-16,
        -1.0,
        0.0,
        0.0,
        1.0,
        2.220446049250313e-16,
        0.0,
        0.0,
        0.0,
        0.0,
        1.0
      ],
      "name": "Sketchfab_model"
    },
    {
      "children": [
        2
      ],
      "matrix": [
        0.009999999776482582,
        0.0,
        0.0,
        0.0,
        0.0,
        0.0,
        0.009999999776482582,
        0.0,
        0.0,
        -0.009999999776482582,
        0.0,
        0.0,
        0.0,
        0.0,
        0.0,
        1.0
      ],
      "name": "48dc9813463e48b1a405af2b8b993a98.fbx"
    },
    {
      "children": [
        3
      ],
      "name": "RootNode"
    },
    {
      "children": [
        4
      ],
      "name": "LOWPROPS"
    },
    {
      "children": [
        5
      ],
      "name": "Props2"
    },
    {
      "children": [
        6,
        8,
        10,
        12,
        14,
        16,
        18
      ],
      "matrix": [
        1.0,
        0.0,
        0.0,
        0.0,
        0.0,
        1.0,
        0.0,
        0.0,
        0.0,
        0.0,
        1.0,
        0.0,
        230.40911865234375,
        0.0,
        64.86993408203125,
        1.0
      ],
      "name": "BigChair"
    },
    {
      "children": [
        7
      ],
      "name": "Armrests_low"
    },
    {
      "mesh": 0,
      "name": "Armrests_low_M_PROPS2_0"
    },
    {
      "children": [
        9
      ],
      "name": "Cushion_low"
    },
    {
      "mesh": 1,
      "name": "Cushion_low_M_PROPS2_0"
    },
    {
      "children": [
        11
      ],
      "name": "Back_low"
    },
    {
      "mesh": 2,
      "name": "Back_low_M_PROPS2_0"
    },
    {
      "children": [
        13
      ],
      "name": "Leg1_low"
    },
    {
      "mesh": 3,
      "name": "Leg1_low_M_PROPS2_0"
    },
    {
      "children": [
        15
      ],
      "name": "Leg2_low"
    },
    {
      "mesh": 4,
      "name": "Leg2_low_M_PROPS2_0"
    },
    {
      "children": [
        17
      ],
      "name": "Leg3_low"
    },
    {
      "mesh": 5,
      "name": "Leg3_low_M_PROPS2_0"
    },
    {
      "children": [
        19
      ],
      "name": "Leg4_low"
    },
    {
      "mesh": 6,
      "name": "Leg4_low_M_PROPS2_0"
    }
  ],
  "samplers": [
    {
      "magFilter": 9729,
      "minFilter": 9987,
      "wrapS": 10497,
      "wrapT": 10497
    }
  ],
  "scene": 0,
  "scenes": [
    {
      "name": "Sketchfab_Scene",
      "nodes": [
        0
      ]
    }
  ],
  "textures": [
    {
      "sampler": 0,
      "source": 0
    },
    {
      "sampler": 0,
      "source": 1
    },
    {
      "sampler": 0,
      "source": 2
    }
  ]
}
